<svg width="128" height="128" viewBox="0 0 128 128" fill="none" xmlns="http://www.w3.org/2000/svg">
<rect width="128" height="128" rx="8" fill="#D9D9D9" fill-opacity="0.33"/>
<path d="M12 21.7509C12 16.3676 17.8229 12 25 12V21.7509V101.668L60.2354 82.7959C62.4833 81.577 65.5438 81.577 67.7917 82.7959L103 101.668V21.7509H25V12H103C110.177 12 116 16.3676 116 21.7509V111.135C116 112.963 114.646 114.629 112.479 115.462C110.313 116.294 107.713 116.152 105.735 115.096L64 92.75L22.2646 115.096C20.2875 116.152 17.6875 116.294 15.5208 115.462C13.3542 114.629 12 112.963 12 111.135V21.7509Z" fill="#B197FC"/>
</svg>
